<?xml version="1.0" encoding="iso-8859-1"?>
<!-- Uploaded to: SVG Repo, www.svgrepo.com, Transformed by: SVG Repo Mixer Tools -->
<svg version="1.1" id="Layer_1" xmlns="http://www.w3.org/2000/svg" xmlns:xlink="http://www.w3.org/1999/xlink" 
	 viewBox="0 0 460 460" xml:space="preserve">
<g id="XMLID_1191_">
	<path id="XMLID_1192_" style="fill:#FC5A37;" d="M452.427,171.294C426.477,72.709,336.735,0,230,0C102.975,0,0,102.974,0,230
		c0,104.86,70.176,193.321,166.123,221.004L452.427,171.294z"/>
	<path id="XMLID_43_" style="fill:#DB3916;" d="M460,230c0-20.291-2.639-39.964-7.573-58.706l-71.254-71.254L87.56,372.44
		l78.563,78.563C186.405,456.855,207.834,460,230,460C357.026,460,460,357.025,460,230z"/>
	<polygon id="XMLID_42_" style="fill:#ADEEFF;" points="343.452,373.115 208.097,251.903 86.885,116.548 128.565,74.868 
		385.132,331.435 	"/>
	
		<rect id="XMLID_41_" x="26.93" y="241.649" transform="matrix(-0.7071 -0.7071 0.7071 -0.7071 177.7309 576.9168)" style="fill:#7BE3FF;" width="362.838" height="20"/>
	
		<rect id="XMLID_40_" x="144.181" y="104.623" transform="matrix(-0.7071 -0.7071 0.7071 -0.7071 182.1524 304.6948)" style="fill:#12B5FF;" width="20" height="20"/>
	
		<rect id="XMLID_39_" x="183.937" y="144.378" transform="matrix(-0.7071 -0.7071 0.7071 -0.7071 221.9085 400.674)" style="fill:#12B5FF;" width="20" height="20"/>
	
		<rect id="XMLID_38_" x="295.62" y="256.059" transform="matrix(-0.7071 -0.7071 0.7071 -0.7071 333.5929 670.2973)" style="fill:#12B5FF;" width="20" height="20"/>
	
		<rect id="XMLID_37_" x="335.376" y="295.815" transform="matrix(-0.7071 -0.7071 0.7071 -0.7071 373.3489 766.2766)" style="fill:#12B5FF;" width="20" height="20"/>
	<polygon id="XMLID_36_" style="fill:#071E61;" points="87.56,372.44 100.404,338.973 117.787,342.214 121.028,359.597 	"/>
	<polygon id="XMLID_35_" style="fill:#FFF2D4;" points="118.384,292.118 100.404,338.973 121.028,359.597 167.882,341.616 
		150.204,309.796 	"/>
	<polygon id="XMLID_34_" style="fill:#FFE278;" points="321.318,138.682 235.761,238.381 143.133,316.867 118.384,292.118 
		289.498,121.005 	"/>
	<polygon id="XMLID_33_" style="fill:#FFAE46;" points="338.996,170.502 167.882,341.616 143.133,316.867 321.318,138.682 	"/>
	<polygon id="XMLID_32_" style="fill:#FFFFFF;" points="310.711,99.791 289.498,121.005 338.996,170.502 360.209,149.289 
		342.531,117.469 	"/>
	<path id="XMLID_3_" style="fill:#12B5FF;" d="M381.173,100.04L359.96,78.827c-7.778-7.778-20.506-7.778-28.284,0l-20.964,20.964
		l49.497,49.497l20.964-20.964C388.952,120.546,388.952,107.818,381.173,100.04z"/>
</g>
</svg>