<?xml version="1.0" encoding="iso-8859-1"?>
<!-- Uploaded to: SVG Repo, www.svgrepo.com, Transformed by: SVG Repo Mixer Tools -->
<svg version="1.1" id="Layer_1" xmlns="http://www.w3.org/2000/svg" xmlns:xlink="http://www.w3.org/1999/xlink" 
	 viewBox="0 0 460 460" xml:space="preserve">
<g id="XMLID_1165_">
	<path id="XMLID_1166_" style="fill:#73A7E6;" d="M154.2,447.199l293-293C415.869,64.419,330.464,0,230,0C102.975,0,0,102.974,0,230
		C0,330.464,64.42,415.869,154.2,447.199z"/>
	<path id="XMLID_1167_" style="fill:#487ED2;" d="M460,230c0-26.562-4.517-52.064-12.801-75.801L353,60L107,400l47.199,47.199
		C177.936,455.483,203.439,460,230,460C357.026,460,460,357.025,460,230z"/>
	<polygon id="XMLID_1168_" style="fill:#ADEEFF;" points="240,370 230,400 107,400 107,380 	"/>
	<polygon id="XMLID_1169_" style="fill:#E0F8FF;" points="240,350 230,380 107,380 107,360 	"/>
	<polygon id="XMLID_1170_" style="fill:#FFFFFF;" points="230,360 107,360 107,60 230,100 240,230 	"/>
	<rect id="XMLID_1171_" x="107" y="320" style="fill:#E0F8FF;" width="133" height="20"/>
	<rect id="XMLID_1172_" x="107" y="280" style="fill:#E0F8FF;" width="133" height="20"/>
	<rect id="XMLID_1173_" x="107" y="240" style="fill:#E0F8FF;" width="133" height="20"/>
	<rect id="XMLID_1174_" x="107" y="200" style="fill:#E0F8FF;" width="133" height="20"/>
	<rect id="XMLID_1175_" x="107" y="160" style="fill:#E0F8FF;" width="133" height="20"/>
	<rect id="XMLID_1176_" x="107" y="120" style="fill:#E0F8FF;" width="133" height="20"/>
	<rect id="XMLID_1177_" x="137" y="90" style="fill:#FC5A37;" width="20" height="270"/>
	<rect id="XMLID_1178_" x="107" y="60" style="fill:#12398F;" width="123" height="40"/>
	<polygon id="XMLID_1179_" style="fill:#7BE3FF;" points="353,380 353,400 230,400 230,370 	"/>
	<polygon id="XMLID_1180_" style="fill:#ADEEFF;" points="353,360 353,380 230,380 230,350 	"/>
	<polygon id="XMLID_1181_" style="fill:#E0F8FF;" points="353,360 230,360 230,100 353,60 	"/>
	<rect id="XMLID_1182_" x="230" y="60" style="fill:#071E61;" width="123" height="40"/>
	<rect id="XMLID_1183_" x="230" y="280" style="fill:#ADEEFF;" width="53" height="20"/>
	<rect id="XMLID_1184_" x="230" y="240" style="fill:#ADEEFF;" width="123" height="20"/>
	<rect id="XMLID_1185_" x="230" y="200" style="fill:#ADEEFF;" width="123" height="20"/>
	<rect id="XMLID_1186_" x="230" y="160" style="fill:#ADEEFF;" width="123" height="20"/>
	<rect id="XMLID_1187_" x="230" y="120" style="fill:#ADEEFF;" width="123" height="20"/>
	<rect id="XMLID_1188_" x="230" y="320" style="fill:#ADEEFF;" width="53" height="20"/>
	<rect id="XMLID_1189_" x="273" y="280" style="fill:#7BE3FF;" width="80" height="80"/>
	<polygon id="XMLID_1190_" style="fill:#FFFFFF;" points="273,280 273,360 353,280 	"/>
</g>
</svg>