<?xml version="1.0" encoding="iso-8859-1"?>
<!-- Uploaded to: SVG Repo, www.svgrepo.com, Transformed by: SVG Repo Mixer Tools -->
<svg version="1.1" id="Layer_1" xmlns="http://www.w3.org/2000/svg" xmlns:xlink="http://www.w3.org/1999/xlink" 
	 viewBox="0 0 460 460" xml:space="preserve">
<g id="XMLID_868_">
	<path id="XMLID_869_" style="fill:#ADEEFF;" d="M149.523,445.513l310.345-213.096c0.034,0.018,0.066,0.035,0.1,0.053
		c0.009-0.824,0.031-1.644,0.031-2.47C460,102.975,357.026,0,230.001,0s-230,102.975-230,230
		C0.001,328.714,62.195,412.891,149.523,445.513z"/>
	<path id="XMLID_870_" style="fill:#48D9FF;" d="M459.969,232.47c-0.034-0.018-0.066-0.035-0.1-0.053L323.643,96.19L98.181,394.17
		l51.343,51.343c25.05,9.359,52.163,14.487,80.477,14.487C356.201,460,458.643,358.355,459.969,232.47z"/>
	<path id="XMLID_871_" style="fill:#487ED2;" d="M272.161,91.167h-20v-28.84c0-12.219-9.941-22.16-22.16-22.16
		s-22.16,9.941-22.16,22.16v28.84h-20v-28.84c0-23.247,18.913-42.16,42.16-42.16s42.16,18.913,42.16,42.16V91.167z"/>
	<path id="XMLID_872_" style="fill:#487ED2;" d="M408.401,253.97v58.47c0,25.68-20.9,46.58-46.58,46.58l-10-115.05L408.401,253.97z"
		/>
	<rect id="XMLID_873_" x="351.82" y="213.97" style="fill:#1D54BD;" width="56.58" height="40"/>
	<path id="XMLID_874_" style="fill:#73A7E6;" d="M108.181,243.97l-10,115.05c-25.68,0-46.58-20.9-46.58-46.58v-58.47L108.181,243.97
		z"/>
	<rect id="XMLID_875_" x="51.601" y="213.97" style="fill:#487ED2;" width="56.58" height="40"/>
	<path id="XMLID_876_" style="fill:#1D54BD;" d="M230.001,57.76l10,10l-10,10l-111.82,316.41h-20V189.59
		C98.181,116.78,157.201,57.76,230.001,57.76z"/>
	<path id="XMLID_877_" style="fill:#FE843F;" d="M230.001,394.17h-111.82V189.59c0-61.66,50.16-111.83,111.82-111.83l10,158.205
		L230.001,394.17z"/>
	<path id="XMLID_878_" style="fill:#12398F;" d="M361.82,189.59v204.58h-20L230.001,77.76v-20
		C302.8,57.76,361.82,116.78,361.82,189.59z"/>
	<path id="XMLID_879_" style="fill:#FC5A37;" d="M341.82,189.59v204.58h-111.82V77.76C291.661,77.76,341.82,127.93,341.82,189.59z"
		/>
	<polygon id="XMLID_880_" style="fill:#48D9FF;" points="230.001,193.97 240.001,243.97 150.911,233.97 150.911,193.97 	"/>
	<polygon id="XMLID_881_" style="fill:#ADEEFF;" points="240.001,233.97 230.001,341.44 150.911,341.44 150.911,233.97 	"/>
	<polygon id="XMLID_882_" style="fill:#48D9FF;" points="309.091,233.97 309.091,341.44 230.001,341.44 230.001,233.97 
		269.546,223.97 	"/>
	<rect id="XMLID_883_" x="230.001" y="193.97" style="fill:#12B5FF;" width="79.09" height="40"/>
</g>
</svg>